<svg width="34" height="34" fill="none" xmlns="http://www.w3.org/2000/svg"><path d="M21.321 7.083a7.083 7.083 0 015.596 5.596M21.321 1.417a12.75 12.75 0 0111.263 11.248M31.167 23.97v4.25a2.833 2.833 0 01-3.088 2.833 28.035 28.035 0 01-12.226-4.349 27.623 27.623 0 01-8.5-8.5 28.035 28.035 0 01-4.35-12.282 2.833 2.833 0 012.82-3.089h4.25a2.833 2.833 0 012.833 2.437c.18 1.36.512 2.695.992 3.98a2.833 2.833 0 01-.638 2.99l-1.799 1.799a22.666 22.666 0 008.5 8.5l1.8-1.8a2.833 2.833 0 012.989-.637c1.285.48 2.62.813 3.98.992a2.834 2.834 0 012.437 2.876z" stroke="#444" stroke-opacity=".79" stroke-width="2" stroke-linecap="round" stroke-linejoin="round"/></svg>