<svg width="30" height="30" fill="none" xmlns="http://www.w3.org/2000/svg"><path d="M21.675 6.825a1.5 1.5 0 100 3 1.5 1.5 0 000-3zm5.75 3.025a9.488 9.488 0 00-.575-3.037A6.174 6.174 0 0025.4 4.6a5.875 5.875 0 00-2.212-1.437 9.125 9.125 0 00-3.038-.588C18.825 2.5 18.4 2.5 15 2.5c-3.4 0-3.825 0-5.15.075a9.125 9.125 0 00-3.037.587c-.836.309-1.592.8-2.213 1.438a5.875 5.875 0 00-1.437 2.213 9.125 9.125 0 00-.588 3.037C2.5 11.175 2.5 11.6 2.5 15c0 3.4 0 3.825.075 5.15a9.125 9.125 0 00.587 3.038A5.875 5.875 0 004.6 25.4a5.974 5.974 0 002.213 1.438 9.125 9.125 0 003.037.587c1.325.075 1.75.075 5.15.075 3.4 0 3.825 0 5.15-.075a9.125 9.125 0 003.038-.588A5.875 5.875 0 0025.4 25.4a6.063 6.063 0 001.45-2.212c.356-.975.55-2 .575-3.038 0-1.325.075-1.75.075-5.15 0-3.4 0-3.825-.075-5.15zM25.175 20a7.012 7.012 0 01-.425 2.325c-.2.544-.52 1.035-.938 1.438a3.988 3.988 0 01-1.437.937 7.012 7.012 0 01-2.325.425c-1.25.063-1.713.075-5 .075-3.288 0-3.75 0-5-.075a7.162 7.162 0 01-2.425-.375 4.087 4.087 0 01-1.375-.938 3.75 3.75 0 01-.925-1.437 6.925 6.925 0 01-.5-2.375c0-1.25-.075-1.712-.075-5 0-3.287 0-3.75.075-5a6.925 6.925 0 01.438-2.375A3.75 3.75 0 016.25 6.25c.38-.43.85-.771 1.375-1A7.162 7.162 0 0110 4.825c1.25 0 1.713-.075 5-.075 3.288 0 3.75 0 5 .075.794.01 1.58.153 2.325.425.568.21 1.078.554 1.488 1 .41.384.73.853.937 1.375.278.761.422 1.565.425 2.375.063 1.25.075 1.713.075 5 0 3.288-.012 3.75-.075 5zM15 8.588A6.413 6.413 0 1021.425 15 6.4 6.4 0 0015 8.588zm0 10.575a4.163 4.163 0 110-8.326 4.163 4.163 0 010 8.326z" fill="#25252B"/></svg>