<svg width="30" height="28" fill="none" xmlns="http://www.w3.org/2000/svg"><g clip-path="url(#clip0_7_22)"><path d="M0 8.144l.4 1.417.031-.019c.817-.515 1.464-.922 2.19-.922.648 0 1.27.331 1.732.985 2.515 3.553 4.46 15.908 9.168 15.908 4.646 0 16.314-13.47 15.944-19.55-.184-3.019-2.456-3.47-3.795-3.47-2.577 0-5.146 1.515-6.443 4.413 2.213-.338 3.781.843 3.613 3.005-.195 2.456-4.523 8.802-6.537 8.802-3.444 0-5.055-11.051-6.207-14.405C9.809 3.47 8.975 2.95 7.919 2.95c-.75 0-1.526.274-2.186.772a254.266 254.266 0 00-4.58 3.515L0 8.144z" fill="#fff"/></g><defs><clipPath id="clip0_7_22"><path fill="#fff" d="M0 0h29.474v28H0z"/></clipPath></defs></svg>