<svg width="20" height="19" fill="none" xmlns="http://www.w3.org/2000/svg"><g clip-path="url(#clip0_48_40)"><path d="M0 5.527l.272.961.02-.013c.555-.35.994-.626 1.486-.626.44 0 .862.225 1.175.669 1.708 2.41 3.028 10.794 6.222 10.794 3.153 0 11.07-9.14 10.82-13.265-.126-2.049-1.668-2.355-2.576-2.355-1.749 0-3.492 1.028-4.372 2.994 1.502-.23 2.566.572 2.451 2.04-.132 1.666-3.069 5.972-4.435 5.972-2.337 0-3.43-7.499-4.212-9.775-.196-.568-.762-.921-1.478-.921-.509 0-1.036.186-1.484.523A172.529 172.529 0 00.782 4.911L0 5.527z" fill="#25252B"/></g><defs><clipPath id="clip0_48_40"><path fill="#fff" d="M0 0h20v19H0z"/></clipPath></defs></svg>